Coordinates
version=1
nRows=16
nColumns=63
inDegrees=yes

Units are S.I. units (second, meters, Newtons, ...)
If the header above contains a line with 'inDegrees', this indicates whether rotational values are in degrees (yes) or radians (no).

endheader
time	pelvis_tilt	pelvis_list	pelvis_rotation	pelvis_tx	pelvis_ty	pelvis_tz	hip_flexion_r	hip_adduction_r	hip_rotation_r	knee_angle_r	knee_angle_r_beta	ankle_angle_r	subtalar_angle_r	mtp_angle_r	hip_flexion_l	hip_adduction_l	hip_rotation_l	knee_angle_l	knee_angle_l_beta	ankle_angle_l	subtalar_angle_l	mtp_angle_l	L5_S1_Flex_Ext	L5_S1_Lat_Bending	L5_S1_axial_rotation	L4_L5_Flex_Ext	L4_L5_Lat_Bending	L4_L5_axial_rotation	L3_L4_Flex_Ext	L3_L4_Lat_Bending	L3_L4_axial_rotation	L2_L3_Flex_Ext	L2_L3_Lat_Bending	L2_L3_axial_rotation	L1_L2_Flex_Ext	L1_L2_Lat_Bending	L1_L2_axial_rotation	L1_T12_Flex_Ext	L1_T12_Lat_Bending	L1_T12_axial_rotation	Abs_r3	Abs_r2	Abs_r1	Abs_t1	Abs_t2	neck_flexion	neck_bending	neck_rotation	arm_flex_r	arm_add_r	arm_rot_r	elbow_flex_r	pro_sup_r	wrist_flex_r	wrist_dev_r	arm_flex_l	arm_add_l	arm_rot_l	elbow_flex_l	pro_sup_l	wrist_flex_l	wrist_dev_l
0.000000	-6.428175	-3.292646	95.513949	0.272324	0.731183	0.792009	-7.482589	-1.234181	-7.499864	0.295795	0.005163	22.709049	-4.143049	0.000000	-6.173691	1.148038	4.592282	0.203581	0.003553	31.924707	8.018694	0.000000	0.194122	0.036555	-0.143061	0.360505	0.048618	-0.152002	0.318924	0.088879	-0.152002	0.221862	0.088879	-0.125178	0.180262	0.074542	-0.116237	0.110922	0.056623	-0.107296	1.386597	0.413513	-0.795661	0.000000	0.000000	15.291350	6.291143	1.030815	17.925936	-8.505970	77.437893	38.770869	36.328650	8.650886	11.055997	19.984952	-3.140791	82.177278	31.178072	81.034942	4.234504	-11.362099
0.016949	-6.635734	-3.411011	95.356099	0.273232	0.730952	0.791969	-7.417558	-1.372333	-9.157646	0.281005	0.004904	20.825739	-3.884847	0.000000	-6.037255	1.304843	3.717913	0.203569	0.003553	31.729921	9.292341	0.000000	0.202398	-0.002863	-0.070390	0.375873	-0.003807	-0.074789	0.332519	-0.006960	-0.074789	0.231320	-0.006960	-0.061591	0.187947	-0.005837	-0.057192	0.115650	-0.004434	-0.052792	1.445707	-0.032381	-0.391487	0.000000	0.000000	16.123574	6.483353	0.124223	18.338766	-8.265309	78.751748	38.464298	33.607056	8.525641	10.482633	19.809377	-3.337859	82.285740	31.187221	78.877030	4.645401	-11.322951
0.033898	-6.774254	-3.497454	95.146182	0.274069	0.730778	0.792011	-7.361410	-1.458018	-10.567690	0.270555	0.004722	19.244398	-3.589124	0.000000	-5.948350	1.409604	3.092031	0.204027	0.003561	31.516664	10.114219	0.000000	0.208922	-0.029878	-0.010643	0.387989	-0.039737	-0.011308	0.343238	-0.072645	-0.011308	0.238777	-0.072645	-0.009313	0.194005	-0.060927	-0.008647	0.119378	-0.046281	-0.007982	1.492308	-0.337982	-0.059193	0.000000	0.000000	16.723142	6.636760	-0.523567	18.582491	-8.053875	79.457199	38.242934	31.572875	8.379889	10.206329	19.649562	-3.498083	82.395720	31.183645	76.874946	4.879021	-11.371889
0.050847	-6.851647	-3.555912	94.890669	0.274838	0.730657	0.792132	-7.312208	-1.497824	-11.743042	0.264038	0.004608	17.940297	-3.267363	0.000000	-5.900693	1.468838	2.693339	0.204890	0.003576	31.287576	10.524456	0.000000	0.213923	-0.045845	0.037636	0.397276	-0.060973	0.039988	0.351453	-0.111467	0.039988	0.244492	-0.111467	0.032931	0.198649	-0.093486	0.030579	0.122235	-0.071013	0.028227	1.528028	-0.518604	0.209318	0.000000	0.000000	17.117613	6.752714	-0.940569	18.674983	-7.869146	79.623737	38.096766	30.153178	8.215620	10.193815	19.502523	-3.624416	82.494863	31.168974	75.032813	4.959649	-11.493524
0.067797	-6.875825	-3.590323	94.596029	0.275542	0.730580	0.792325	-7.268015	-1.498340	-12.696749	0.261047	0.004556	16.888705	-2.931045	0.000000	-5.888000	1.489065	2.500539	0.206098	0.003597	31.045302	10.563176	0.000000	0.217628	-0.052117	0.075902	0.404157	-0.069316	0.080646	0.357541	-0.126718	0.080646	0.248727	-0.126718	0.066414	0.202089	-0.106278	0.061670	0.124353	-0.080730	0.056926	1.554495	-0.589562	0.422143	0.000000	0.000000	17.334545	6.832564	-1.154800	18.634118	-7.708595	79.320853	38.015787	29.275037	8.034825	10.411821	19.365275	-3.719815	82.570816	31.144840	73.354753	4.911570	-11.672466
0.084746	-6.854702	-3.604628	94.268734	0.276184	0.730539	0.792587	-7.226894	-1.466155	-13.441857	0.261178	0.004558	16.064894	-2.591655	0.000000	-5.903987	1.476802	2.492334	0.207588	0.003623	30.792483	10.270505	0.000000	0.220266	-0.050049	0.105612	0.409056	-0.066566	0.112213	0.361875	-0.121690	0.112213	0.251742	-0.121690	0.092410	0.204539	-0.102061	0.085810	0.125860	-0.077527	0.079209	1.573337	-0.566169	0.587382	0.000000	0.000000	17.401495	6.877659	-1.194276	18.477768	-7.569698	78.618039	37.989988	28.865522	7.839493	10.827075	19.234835	-3.787236	82.611226	31.112873	71.844890	4.759069	-11.893327
0.101695	-6.796189	-3.602765	93.915254	0.276766	0.730529	0.792911	-7.186909	-1.407858	-13.991412	0.264023	0.004608	15.444134	-2.260672	0.000000	-5.942370	1.438570	2.647426	0.209297	0.003653	30.531760	9.686571	0.000000	0.222064	-0.040995	0.128222	0.412395	-0.054523	0.136236	0.364829	-0.099675	0.136236	0.253797	-0.099675	0.112194	0.206209	-0.083597	0.104180	0.126887	-0.063501	0.096166	1.586182	-0.463742	0.713131	0.000000	0.000000	17.346023	6.889348	-1.087011	18.223808	-7.449930	77.584784	38.009360	28.851703	7.631615	11.406307	19.108217	-3.829634	82.603739	31.074704	70.507346	4.526431	-12.140717
0.118644	-6.708199	-3.588671	93.542059	0.277292	0.730540	0.793293	-7.146122	-1.330038	-14.358460	0.269176	0.004698	15.001696	-1.949580	0.000000	-5.996866	1.380885	2.944518	0.211163	0.003685	30.265777	8.851498	0.000000	0.223251	-0.026307	0.145187	0.414600	-0.034989	0.154262	0.366779	-0.063964	0.154262	0.255154	-0.063964	0.127039	0.207311	-0.053646	0.117965	0.127566	-0.040750	0.108891	1.594660	-0.297594	0.807489	0.000000	0.000000	17.195686	6.868982	-0.861023	17.890112	-7.346766	76.290580	38.063896	29.160651	7.413181	12.116246	18.982438	-3.849966	82.536002	31.031963	69.346245	4.237942	-12.399247
0.135593	-6.598645	-3.566286	93.155619	0.277764	0.730567	0.793728	-7.102597	-1.239283	-14.556047	0.276233	0.004821	14.712850	-1.669862	0.000000	-6.061191	1.310268	3.362313	0.213124	0.003720	29.997176	7.805413	0.000000	0.224054	-0.007341	0.157965	0.416091	-0.009763	0.167837	0.368099	-0.017848	0.167837	0.256072	-0.017848	0.138219	0.208057	-0.014969	0.128346	0.128025	-0.011371	0.118474	1.600398	-0.083040	0.878552	0.000000	0.000000	16.978041	6.817909	-0.544326	17.494553	-7.257680	74.804918	38.143587	29.719438	7.186182	12.923623	18.854513	-3.851186	82.395661	30.986281	68.365708	3.917886	-12.653528
0.152542	-6.475438	-3.539549	92.762406	0.278185	0.730602	0.794211	-7.054397	-1.142182	-14.597219	0.284786	0.004970	14.552866	-1.432998	0.000000	-6.129061	1.233237	3.879512	0.215118	0.003755	29.728598	6.588441	0.000000	0.224702	0.014551	0.168010	0.417294	0.019353	0.178510	0.369163	0.035380	0.178510	0.256812	0.035380	0.147009	0.208658	0.029673	0.136508	0.128395	0.022540	0.126007	1.605024	0.164605	0.934420	0.000000	0.000000	16.720648	6.737478	-0.164937	17.055006	-7.180149	73.197288	38.238424	30.455133	6.952607	13.795166	18.721458	-3.836250	82.170364	30.939290	67.569860	3.590549	-12.888170
0.169492	-6.346491	-3.512399	92.368890	0.278559	0.730637	0.794736	-6.999585	-1.045324	-14.495022	0.294429	0.005139	14.497016	-1.250471	0.000000	-6.194193	1.156310	4.474819	0.217082	0.003789	29.462686	5.240710	0.000000	0.225422	0.038014	0.176778	0.418631	0.050559	0.187827	0.370346	0.092428	0.187827	0.257635	0.092428	0.154681	0.209327	0.077519	0.143632	0.128806	0.058884	0.132584	1.610167	0.430026	0.983189	0.000000	0.000000	16.451063	6.629040	0.249129	16.589344	-7.111647	71.537182	38.338398	31.294808	6.714447	14.697604	18.580288	-3.808114	81.847756	30.892620	66.962822	3.280216	-13.087785
0.186441	-6.221458	-3.503732	91.998506	0.278861	0.730698	0.795291	-6.900945	-0.958527	-14.103294	0.301265	0.005258	14.597582	-1.224103	0.000000	-6.213356	1.085564	4.946920	0.217634	0.003798	29.288677	4.030644	0.000000	0.226385	0.060805	0.199676	0.420420	0.080871	0.212156	0.371928	0.147842	0.212156	0.258736	0.147842	0.174717	0.210221	0.123994	0.162237	0.129357	0.094187	0.149757	1.617048	0.687840	1.110539	0.000000	0.000000	16.294206	6.449501	0.576238	16.097646	-7.078853	69.959282	38.388629	32.215599	6.532290	15.477404	18.444152	-3.719953	81.483287	30.816701	66.900920	2.916146	-13.195114
0.203390	-6.120617	-3.520769	91.638128	0.279128	0.730668	0.795861	-6.788997	-0.896822	-13.543845	0.308388	0.005382	14.621976	-1.453659	0.000000	-6.208558	1.043661	5.538523	0.218688	0.003817	29.069240	2.676615	0.000000	0.231147	0.080076	0.223852	0.429263	0.106501	0.237842	0.379751	0.194696	0.237842	0.264178	0.194696	0.195870	0.214643	0.163290	0.181880	0.132077	0.124037	0.167889	1.651058	0.905832	1.244996	0.000000	0.000000	16.245281	6.246304	0.814173	15.668831	-7.039439	68.680346	38.428806	32.698532	6.288494	16.224718	18.259398	-3.648919	80.828639	30.757500	67.127632	2.770390	-13.224534
0.220339	-6.047850	-3.548505	91.286499	0.279374	0.730576	0.796459	-6.676158	-0.863582	-12.920272	0.316045	0.005516	14.576054	-1.811578	0.000000	-6.191421	1.032289	6.217301	0.219935	0.003839	28.812493	1.226958	0.000000	0.236617	0.095306	0.251261	0.439422	0.126757	0.266965	0.388738	0.231727	0.266965	0.270430	0.231727	0.219854	0.219723	0.194348	0.204150	0.135203	0.147629	0.188446	1.690133	1.078120	1.397440	0.000000	0.000000	16.299395	6.038345	0.958178	15.299208	-6.985691	67.641010	38.445466	32.949742	6.023774	16.880790	18.046094	-3.595906	79.951702	30.717481	67.499656	2.840292	-13.140453
0.237288	-6.004577	-3.578926	90.953478	0.279598	0.730451	0.797090	-6.569624	-0.859099	-12.339435	0.324697	0.005667	14.488939	-2.148177	0.000000	-6.165249	1.050977	7.054465	0.220926	0.003856	28.516105	-0.413923	0.000000	0.240872	0.106864	0.279401	0.447323	0.142129	0.296864	0.395728	0.259829	0.296864	0.275292	0.259829	0.244476	0.223673	0.217917	0.227014	0.137634	0.165532	0.209551	1.720523	1.208868	1.553946	0.000000	0.000000	16.449783	5.841208	1.080944	14.971277	-6.916014	66.732993	38.436542	33.175641	5.747557	17.460047	17.801175	-3.565476	78.878584	30.720241	67.849366	3.036265	-12.908802
0.254237	-6.003407	-3.620747	90.645258	0.279820	0.730292	0.797751	-6.458831	-0.896848	-11.803090	0.334865	0.005845	14.417641	-2.435130	0.000000	-6.115413	1.110141	7.662493	0.222377	0.003881	28.298692	-1.694297	0.000000	0.245997	0.112081	0.307244	0.456842	0.149068	0.326447	0.404149	0.272513	0.326447	0.281150	0.272513	0.268838	0.228433	0.228555	0.249636	0.140563	0.173613	0.230433	1.757134	1.267881	1.708799	0.000000	0.000000	16.640243	5.654292	1.146294	14.671604	-6.811111	65.915026	38.391706	33.376232	5.513489	17.991225	17.505521	-3.550896	77.493486	30.730166	68.693640	3.352345	-12.664371
